<?xml version="1.0" encoding="utf-8"?>
<svg viewBox="139.221 173.474 42.6 42.6" width="42.6" height="42.6" xmlns="http://www.w3.org/2000/svg">
  <path d="M 160.521 173.474 C 148.721 173.474 139.221 182.974 139.221 194.774 C 139.221 206.574 148.821 216.074 160.521 216.074 C 172.321 216.074 181.821 206.474 181.821 194.774 C 181.821 182.974 172.221 173.474 160.521 173.474 Z" transform="matrix(0.9999999999999999, 0, 0, 0.9999999999999999, 0, 0)"/>
  <g fill="#fff" transform="matrix(0.9999999999999999, 0, 0, 0.9999999999999999, 139.22088623046872, 173.27433776855466)">
    <path d="m7.6 7.8c3.7-3.7 8.6-5.7 13.7-5.7s10.1 2 13.7 5.7c3.3 3.3 5.3 7.6 5.6 12.3h-10.2c-.3-1.9-1.2-3.7-2.6-5.1-1.8-1.7-4.1-2.7-6.5-2.7-4.6 0-8.4 3.4-9.1 7.8h-10.2c.3-4.7 2.2-9 5.6-12.3z"/>
    <path d="m27.6 21.5c0 3.5-2.8 6.3-6.3 6.3-1.7 0-3.3-.7-4.5-1.9s-1.9-2.8-1.9-4.5.7-3.3 1.9-4.5 2.8-1.8 4.5-1.9c1.7 0 3.3.7 4.5 1.8 1.2 1.4 1.8 3 1.8 4.7z"/>
    <path d="m21.3 40.9c-5.2 0-10.1-2-13.7-5.7-3.4-3.3-5.3-7.6-5.6-12.2h10.2c.3 1.9 1.2 3.7 2.6 5.1 1.7 1.7 4.1 2.7 6.5 2.7 2.5 0 4.8-1 6.5-2.7 1.4-1.4 2.3-3.2 2.6-5.1h10.2c-.7 10-9.1 17.9-19.3 17.9z"/>
  </g>
  <path d="M 160.521 176.674 C 158.621 176.674 156.921 176.974 155.221 177.474 L 158.821 178.174 L 150.721 179.774 L 155.921 180.774 L 147.621 182.374 L 153.221 183.474 L 145.521 184.974 L 151.321 186.074 L 144.121 187.474 L 149.721 188.574 L 143.121 189.874 L 143.121 189.974 L 148.321 190.974 L 142.621 192.074 L 142.621 192.174 L 150.221 192.174 C 151.321 187.574 155.521 184.074 160.521 184.074 C 165.521 184.074 169.721 187.474 170.821 192.174 L 178.421 192.174 C 177.221 183.474 169.621 176.674 160.521 176.674 Z" fill="#ed1c24" transform="matrix(0.9999999999999999, 0, 0, 0.9999999999999999, 0, 0)"/>
  <path d="M 171.121 198.674 L 176.421 199.674 L 169.921 200.974 L 175.521 202.074 L 167.521 203.674 L 173.721 204.874 L 164.421 206.674 L 170.821 207.874 L 161.621 209.674 L 166.521 210.674 L 157.221 212.574 C 158.221 212.774 159.421 212.874 160.521 212.874 C 163.321 212.874 165.921 212.274 168.321 211.074 C 169.021 210.774 169.621 210.374 170.221 209.974 C 171.021 209.474 171.821 208.874 172.521 208.274 C 172.821 208.074 173.021 207.774 173.321 207.474 C 174.021 206.774 174.721 205.974 175.221 205.174 C 175.421 204.974 175.521 204.774 175.721 204.474 C 176.121 203.774 176.521 203.074 176.921 202.374 C 177.021 202.174 177.121 201.974 177.221 201.774 C 177.421 201.174 177.621 200.574 177.821 199.974 C 177.821 199.774 177.921 199.574 178.021 199.374 C 178.221 198.674 178.421 197.974 178.521 197.174 L 171.121 198.674 Z" transform="matrix(0.9999999999999999, 0, 0, 0.9999999999999999, 0, 0)"/>
  <path d="M 160.521 198.474 C 162.521 198.474 164.221 196.774 164.221 194.774 C 164.221 192.774 162.521 191.074 160.521 191.074 C 158.521 191.074 156.821 192.774 156.821 194.774 C 156.821 196.774 158.521 198.474 160.521 198.474 Z" transform="matrix(0.9999999999999999, 0, 0, 0.9999999999999999, 0, 0)"/>
  <path d="M 162.621 193.174 C 162.221 192.774 161.621 192.574 161.021 192.574 C 159.621 192.574 158.421 193.774 158.421 195.174 C 158.421 195.774 158.621 196.274 158.921 196.674 C 158.321 196.174 157.921 195.474 157.921 194.674 C 157.921 193.274 159.121 192.074 160.521 192.074 C 161.421 192.174 162.121 192.574 162.621 193.174 Z" fill="#fff" transform="matrix(0.9999999999999999, 0, 0, 0.9999999999999999, 0, 0)"/>
</svg>